<?xml version="1.0" encoding="iso-8859-1"?>
<!-- Generator: Adobe Illustrator 19.0.0, SVG Export Plug-In . SVG Version: 6.00 Build 0)  -->
<svg version="1.1" id="Capa_1" xmlns="http://www.w3.org/2000/svg" xmlns:xlink="http://www.w3.org/1999/xlink" x="0px" y="0px"
	 viewBox="0 0 512.001 512.001" style="enable-background:new 0 0 512.001 512.001;" xml:space="preserve">
<g>
	<g>
		<path d="M344.242,448.001h-0.086c-2.203,0-3.953,1.789-3.953,4s1.828,4,4.039,4c2.203,0,4-1.789,4-4
			S346.445,448.001,344.242,448.001z"/>
	</g>
</g>
<g>
	<g>
		<path d="M336.242,424.001h-0.086c-2.203,0-3.953,1.789-3.953,4s1.828,4,4.039,4c2.203,0,4-1.789,4-4
			S338.445,424.001,336.242,424.001z"/>
	</g>
</g>
<g>
	<g>
		<path d="M352.242,408.001h-0.086c-2.203,0-3.953,1.789-3.953,4s1.828,4,4.039,4c2.203,0,4-1.789,4-4
			S354.445,408.001,352.242,408.001z"/>
	</g>
</g>
<g>
	<g>
		<path d="M107.595,216.994c-0.945-1.992-3.328-2.839-5.328-1.898c-11.101,5.262-18.277,16.609-18.277,28.91
			c0,4.789,1.035,9.398,3.074,13.699c0.683,1.441,2.117,2.285,3.617,2.285c0.574,0,1.156-0.125,1.712-0.386
			c1.996-0.945,2.847-3.332,1.898-5.328c-1.528-3.219-2.301-6.676-2.301-10.27c0-9.227,5.379-17.735,13.707-21.684
			C107.693,221.377,108.544,218.99,107.595,216.994z"/>
	</g>
</g>
<g>
	<g>
		<path d="M144.895,230.26c-0.941-1.992-3.324-2.843-5.328-1.898c-1.996,0.945-2.847,3.332-1.898,5.328
			c1.535,3.242,2.316,6.711,2.316,10.316c0,9.234-5.382,17.753-13.71,21.691c-1.996,0.945-2.851,3.336-1.902,5.328
			c0.683,1.445,2.117,2.289,3.617,2.289c0.573,0,1.156-0.125,1.706-0.382c11.109-5.266,18.289-16.614,18.289-28.926
			C147.985,239.205,146.946,234.58,144.895,230.26z"/>
	</g>
</g>
<g>
	<g>
		<path d="M126.814,249.178l-16.004-16c-1.562-1.562-4.094-1.562-5.656,0s-1.562,4.094,0,5.656l16.004,16
			c0.781,0.781,1.805,1.172,2.828,1.172s2.047-0.391,2.828-1.172C128.376,253.272,128.376,250.74,126.814,249.178z"/>
	</g>
</g>
<g>
	<g>
		<path d="M142.813,201.178c-1.562-1.562-4.094-1.562-5.656,0l-32.003,32c-1.562,1.562-1.562,4.094,0,5.656
			c0.781,0.781,1.805,1.172,2.828,1.172s2.047-0.391,2.828-1.172l32.003-32C144.375,205.272,144.375,202.74,142.813,201.178z"/>
	</g>
</g>
<g>
	<g>
		<path d="M126.814,249.178c-1.562-1.562-4.094-1.562-5.656,0l-32.004,31.996c-1.562,1.562-1.562,4.094,0,5.656
			c0.781,0.781,1.805,1.172,2.828,1.172s2.047-0.391,2.828-1.172l32.004-31.996C128.376,253.272,128.376,250.74,126.814,249.178z"/>
	</g>
</g>
<g>
	<g>
		<path d="M311.602,288.994c-0.961-2.008-3.375-2.844-5.328-1.906c-11.101,5.266-18.273,16.617-18.273,28.914
			c0,4.789,1.031,9.398,3.07,13.695c0.687,1.445,2.125,2.289,3.617,2.289c0.578,0,1.164-0.125,1.712-0.383
			c2-0.953,2.851-3.336,1.906-5.328c-1.532-3.226-2.305-6.679-2.305-10.273c0-9.227,5.375-17.735,13.695-21.68
			C311.696,293.369,312.547,290.986,311.602,288.994z"/>
	</g>
</g>
<g>
	<g>
		<path d="M348.914,302.26c-0.953-2.008-3.383-2.828-5.328-1.906c-2,0.953-2.851,3.336-1.906,5.328
			c1.539,3.242,2.32,6.718,2.32,10.32c0,9.234-5.383,17.75-13.711,21.695c-2,0.944-2.851,3.335-1.906,5.327
			c0.687,1.445,2.125,2.289,3.617,2.289c0.578,0,1.156-0.124,1.711-0.382C344.82,339.665,352,328.314,352,316.002
			C352,311.205,350.961,306.58,348.914,302.26z"/>
	</g>
</g>
<g>
	<g>
		<path d="M330.812,321.174l-16-16c-1.562-1.562-4.094-1.562-5.656,0s-1.562,4.094,0,5.656l16,16
			c0.781,0.781,1.805,1.172,2.828,1.172c1.024,0,2.047-0.391,2.828-1.172C332.374,325.268,332.374,322.736,330.812,321.174z"/>
	</g>
</g>
<g>
	<g>
		<path d="M346.812,273.174c-1.562-1.562-4.094-1.562-5.656,0l-32,32c-1.562,1.562-1.562,4.094,0,5.656
			c0.781,0.781,1.805,1.172,2.828,1.172c1.024,0,2.047-0.391,2.828-1.172l32-32C348.374,277.268,348.374,274.736,346.812,273.174z"
			/>
	</g>
</g>
<g>
	<g>
		<path d="M330.812,321.174c-1.562-1.562-4.094-1.562-5.656,0l-32,31.999c-1.562,1.562-1.562,4.094,0,5.656
			c0.781,0.781,1.805,1.172,2.828,1.172c1.024,0,2.047-0.391,2.828-1.172l32-31.999
			C332.374,325.268,332.374,322.736,330.812,321.174z"/>
	</g>
</g>
<g>
	<g>
		<path d="M88.001,24.015c-2.211,0-4,1.789-4,4v19.898c0,22.918-18.593,63.207-32.168,92.62
			c-8.215,17.805-14.703,31.864-15.832,39.473v129.785c0,8.461,2.555,22.922,5.515,39.663c3.407,19.273,7.266,41.117,7.266,55.414
			c0,14.305-3.894,28.188-7.332,40.43c-2.922,10.422-5.449,19.429-5.449,27.445c0,17.492,7.993,36.07,8.332,36.852
			c0.656,1.508,2.125,2.406,3.672,2.406c0.532,0,1.071-0.109,1.59-0.328c2.027-0.883,2.957-3.243,2.074-5.266
			c-0.078-0.18-7.668-17.82-7.668-33.664c0-6.914,2.387-15.43,5.153-25.281c3.574-12.742,7.629-27.188,7.629-42.594
			c0-14.993-3.926-37.211-7.391-56.805c-2.77-15.686-5.391-30.506-5.391-38.272l-0.047-129.176
			c0.911-5.886,7.504-20.179,15.145-36.73c14.656-31.765,32.902-71.296,32.902-95.972V28.015
			C92.001,25.804,90.212,24.015,88.001,24.015z"/>
	</g>
</g>
<g>
	<g>
		<path d="M183.219,404.868c0-14.297,3.86-36.141,7.266-55.414c2.961-16.741,5.516-31.202,5.516-39.663l-0.047-130.394
			c-1.082-7-7.571-21.058-15.785-38.863c-13.574-29.414-32.168-69.703-32.168-92.621V29.46c0-2.211-1.789-4-4-4s-4,1.789-4,4v18.453
			c0,24.676,18.246,64.207,32.903,95.972c7.64,16.551,14.234,30.844,15.097,36.121v129.785c0,7.765-2.621,22.585-5.391,38.272
			c-3.464,19.594-7.39,41.813-7.39,56.805c0,15.406,4.054,29.852,7.628,42.594c2.765,9.851,5.152,18.367,5.152,25.281
			c0,15.797-7.593,33.484-7.667,33.664c-0.879,2.024,0.051,4.383,2.074,5.266c0.52,0.219,1.063,0.328,1.594,0.328
			c1.542,0,3.011-0.898,3.667-2.406c0.34-0.782,8.332-19.36,8.332-36.852c0-8.015-2.527-17.023-5.449-27.445
			C187.114,433.056,183.219,419.173,183.219,404.868z"/>
	</g>
</g>
<g>
	<g>
		<path d="M148.001,24.015h-64c-2.211,0-4,1.789-4,4s1.789,4,4,4h64c2.211,0,4-1.789,4-4S150.212,24.015,148.001,24.015z"/>
	</g>
</g>
<g>
	<g>
		<path d="M88.658,0.061C86.49-0.326,84.419,1.17,84.056,3.35l-4,24.008c-0.363,2.18,1.109,4.239,3.289,4.602
			c0.222,0.039,0.441,0.055,0.66,0.055c1.922,0,3.618-1.387,3.942-3.344l4-24.008C92.31,2.483,90.838,0.424,88.658,0.061z"/>
	</g>
</g>
<g>
	<g>
		<path d="M151.947,27.358l-4-24.008c-0.364-2.18-2.43-3.672-4.602-3.289c-2.18,0.364-3.652,2.422-3.289,4.602l4,24.008
			c0.324,1.957,2.019,3.344,3.941,3.344c0.219,0,0.438-0.016,0.661-0.055C150.838,31.596,152.31,29.538,151.947,27.358z"/>
	</g>
</g>
<g>
	<g>
		<path d="M144.001,0.007h-56c-2.211,0-4,1.789-4,4s1.789,4,4,4h56c2.211,0,4-1.789,4-4S146.212,0.007,144.001,0.007z"/>
	</g>
</g>
<g>
	<g>
		<path d="M184.001,504.001h-136c-2.211,0-4,1.789-4,4s1.789,4,4,4h136c2.21,0,4-1.789,4-4S186.212,504.001,184.001,504.001z"/>
	</g>
</g>
<g>
	<g>
		<path d="M176.001,176.006h-120c-2.211,0-4,1.789-4,4s1.789,4,4,4h120c2.211,0,4-1.789,4-4S178.212,176.006,176.001,176.006z"/>
	</g>
</g>
<g>
	<g>
		<path d="M176.001,304.002h-120c-2.211,0-4,1.789-4,4s1.789,4,4,4h120c2.211,0,4-1.789,4-4S178.212,304.002,176.001,304.002z"/>
	</g>
</g>
<g>
	<g>
		<path d="M169.098,496.157c-1.164-0.336-28.816-8.156-53.097-8.156c-24.285,0-51.933,7.82-53.098,8.157
			c-2.125,0.601-3.355,2.82-2.75,4.945c0.504,1.757,2.106,2.898,3.848,2.898c0.364,0,0.731-0.047,1.098-0.156
			c0.277-0.078,27.726-7.844,50.902-7.844c23.141,0,50.625,7.766,50.902,7.843c2.121,0.625,4.332-0.633,4.945-2.742
			C172.453,498.977,171.223,496.759,169.098,496.157z"/>
	</g>
</g>
<g>
	<g>
		<path d="M88.001,368.001c-2.211,0-4,1.789-4,4v64c0,2.211,1.789,4,4,4s4-1.789,4-4v-64
			C92.001,369.79,90.212,368.001,88.001,368.001z"/>
	</g>
</g>
<g>
	<g>
		<path d="M116.001,368.001c-2.211,0-4,1.789-4,4v64c0,2.211,1.789,4,4,4s4-1.789,4-4v-64
			C120.001,369.79,118.212,368.001,116.001,368.001z"/>
	</g>
</g>
<g>
	<g>
		<path d="M144.001,368.001c-2.211,0-4,1.789-4,4v64c0,2.211,1.789,4,4,4s4-1.789,4-4v-64
			C148.001,369.79,146.212,368.001,144.001,368.001z"/>
	</g>
</g>
<g>
	<g>
		<path d="M257.298,362.516c-10.343-45.859-23.218-102.921-13.343-165.89c0.34-2.183-1.152-4.23-3.332-4.574
			c-2.199-0.324-4.226,1.148-4.574,3.332c-10.106,64.481,2.953,122.375,13.445,168.89c5.636,25,10.507,46.586,10.507,63.727
			c0,27.282-2.43,38.852-4.574,49.055c-1.762,8.383-3.426,16.297-3.426,30.945c0,2.211,1.789,4,4,4c2.21,0,3.999-1.789,4-4.001
			c0-13.813,1.508-20.993,3.258-29.305c2.219-10.586,4.742-22.578,4.742-50.695C268.001,409.969,263.04,387.977,257.298,362.516z"/>
	</g>
</g>
<g>
	<g>
		<path d="M403.952,195.385c-0.351-2.187-2.445-3.656-4.57-3.332c-2.188,0.344-3.68,2.39-3.336,4.574
			c9.875,62.969-3,120.032-13.343,165.89C376.961,387.978,372,409.97,372,428.001c0,28.117,2.523,40.109,4.742,50.695
			c1.75,8.313,3.258,15.493,3.258,29.305c0,2.211,1.789,4,4,4s4-1.789,4-3.999c0-14.648-1.664-22.562-3.422-30.945
			C382.43,466.854,380,455.283,380,428.002c0-17.141,4.867-38.727,10.508-63.727C400.999,317.76,414.061,259.865,403.952,195.385z"
			/>
	</g>
</g>
<g>
	<g>
		<path d="M384.001,504.001h-128c-2.211,0-4,1.789-4,4s1.789,4,4,4H384c2.211,0,4.001-1.789,4.001-4
			S386.212,504.001,384.001,504.001z"/>
	</g>
</g>
<g>
	<g>
		<path d="M400,192.006H240.001c-2.211,0-4,1.789-4,4s1.789,4,4,4h159.998c2.211,0,4.001-1.789,4.001-4S402.211,192.006,400,192.006
			z"/>
	</g>
</g>
<g>
	<g>
		<path d="M384.001,224.006h-128c-2.211,0-4,1.789-4,4s1.789,4,4,4H384c2.211,0,4.001-1.789,4.001-4
			S386.212,224.006,384.001,224.006z"/>
	</g>
</g>
<g>
	<g>
		<path d="M385.031,104.143c-2.148-0.598-4.336,0.703-4.898,2.832L348.11,226.974c-0.57,2.133,0.703,4.329,2.836,4.895
			c0.343,0.094,0.695,0.137,1.031,0.137c1.773,0,3.39-1.18,3.867-2.969l32.023-119.999
			C388.437,106.905,387.164,104.709,385.031,104.143z"/>
	</g>
</g>
<g>
	<g>
		<path d="M475.757,74.64c-0.75-2.075-3.047-3.153-5.125-2.391l-87.999,32c-2.079,0.754-3.149,3.047-2.391,5.125
			c0.586,1.625,2.125,2.633,3.758,2.633c0.453,0,0.914-0.078,1.367-0.242l87.999-32C475.445,79.011,476.515,76.718,475.757,74.64z"
			/>
	</g>
</g>
<g>
	<g>
		<path d="M368,488.001h-96c-2.211,0-4,1.789-4,4s1.789,4,4,4h96c2.211,0,4-1.789,4-4S370.211,488.001,368,488.001z"/>
	</g>
</g>
<g>
</g>
<g>
</g>
<g>
</g>
<g>
</g>
<g>
</g>
<g>
</g>
<g>
</g>
<g>
</g>
<g>
</g>
<g>
</g>
<g>
</g>
<g>
</g>
<g>
</g>
<g>
</g>
<g>
</g>
</svg>
